<svg width="20" height="21" viewBox="0 0 20 21" fill="none" xmlns="http://www.w3.org/2000/svg">
<path d="M9.99 0.5C4.47 0.5 0 4.98 0 10.5C0 16.02 4.47 20.5 9.99 20.5C15.52 20.5 20 16.02 20 10.5C20 4.98 15.52 0.5 9.99 0.5ZM14 14.5C13.9075 14.5927 13.7976 14.6663 13.6766 14.7164C13.5557 14.7666 13.426 14.7924 13.295 14.7924C13.164 14.7924 13.0343 14.7666 12.9134 14.7164C12.7924 14.6663 12.6825 14.5927 12.59 14.5L9.3 11.21C9.20551 11.1174 9.13034 11.0069 9.07885 10.8851C9.02735 10.7632 9.00055 10.6323 9 10.5V6.5C9 5.95 9.45 5.5 10 5.5C10.55 5.5 11 5.95 11 6.5V10.09L14 13.09C14.39 13.48 14.39 14.11 14 14.5Z" fill="#00204A"/>
</svg>
